HIERARCHY
ROOT Hips
{
	OFFSET	0.00	0.00	0.00
	CHANNELS 6 Xposition Yposition Zposition Zrotation Xrotation Yrotation
	JOINT LeftUpperLeg
	{
		OFFSET	 0.100000	-0.066564	-0.000554
		CHANNELS 3 Zrotation Xrotation Yrotation
		JOINT LeftLowerLeg
		{
			OFFSET	 0.002447	-0.463436	-0.005172
			CHANNELS 3 Zrotation Xrotation Yrotation
			JOINT LeftFoot
			{
				OFFSET	-0.002447	-0.420480	-0.020576
				CHANNELS 3 Zrotation Xrotation Yrotation
				JOINT LeftToes
				{
					OFFSET	 0.003734	-0.104922	 0.126407
					CHANNELS 3 Zrotation Xrotation Yrotation
					End Site
					{
						OFFSET	 0.000000	 0.000000	 0.059955
					}
				}
			}
		}
	}
	JOINT RightUpperLeg
	{
		OFFSET	-0.100000	-0.066564	-0.000554
		CHANNELS 3 Zrotation Xrotation Yrotation
		JOINT RightLowerLeg
		{
			OFFSET	-0.002447	-0.463436	-0.005146
			CHANNELS 3 Zrotation Xrotation Yrotation
			JOINT RightFoot
			{
				OFFSET	 0.002447	-0.420479	-0.020602
				CHANNELS 3 Zrotation Xrotation Yrotation
				JOINT RightToes
				{
					OFFSET	-0.003734	-0.104922	 0.126407
					CHANNELS 3 Zrotation Xrotation Yrotation
					End Site
					{
						OFFSET	-0.000000	 0.000000	 0.059955
					}
				}
			}
		}
	}
	JOINT Spine
	{
		OFFSET	 0.000000	 0.099235	-0.012273
		CHANNELS 3 Zrotation Xrotation Yrotation
		JOINT Chest
		{
			OFFSET	-0.000001	 0.116455	-0.014223
			CHANNELS 3 Zrotation Xrotation Yrotation
			JOINT UpperChest
			{
				OFFSET	 0.000001	 0.133602	-0.016265
				CHANNELS 3 Zrotation Xrotation Yrotation
				JOINT LeftShoulder
				{
					OFFSET	 0.061058	 0.091105	 0.007056
					CHANNELS 3 Zrotation Xrotation Yrotation
					JOINT LeftUpperArm
					{
						OFFSET	 0.133942	-0.002659	-0.026009
						CHANNELS 3 Zrotation Xrotation Yrotation
						JOINT LeftLowerArm
						{
							OFFSET	 0.274047	 0.000000	 0.000000
							CHANNELS 3 Zrotation Xrotation Yrotation
							JOINT LeftHand
							{
								OFFSET	 0.276145	 0.000000	 0.000000
								CHANNELS 3 Zrotation Xrotation Yrotation
								End Site
								{
									OFFSET	 0.165687	 0.000000	 0.000000
								}
							}
						}
					}
				}
				JOINT Neck
				{
					OFFSET	 0.000000	 0.150325	 0.007929
					CHANNELS 3 Zrotation Xrotation Yrotation
					JOINT Head
					{
						OFFSET	 0.000000	 0.103218	 0.031424
						CHANNELS 3 Zrotation Xrotation Yrotation
						End Site
						{
							OFFSET	 0.000000	 0.061931	 0.018855
						}
					}
				}
				JOINT RightShoulder
				{
					OFFSET	-0.061057	 0.091105	 0.007056
					CHANNELS 3 Zrotation Xrotation Yrotation
					JOINT RightUpperArm
					{
						OFFSET	-0.133943	-0.002660	-0.026009
						CHANNELS 3 Zrotation Xrotation Yrotation
						JOINT RightLowerArm
						{
							OFFSET	-0.274047	 0.000000	 0.000000
							CHANNELS 3 Zrotation Xrotation Yrotation
							JOINT RightHand
							{
								OFFSET	-0.276145	 0.000000	 0.000000
								CHANNELS 3 Zrotation Xrotation Yrotation
								End Site
								{
									OFFSET	-0.165687	 0.000000	 0.000000
								}
							}
						}
					}
				}
			}
		}
	}
}
MOTION
Frames:    12
Frame Time: 0.03333334
-0.179280	 1.059320	-0.134090	-6.061225	 4.170600	 14.731430	-4.738174	-3.809846	 13.438000	 0.000758	 0.092806	-0.000016	 1.310684	-6.879377	 7.861457	-0.000749	 1.710854	-0.000148	-4.268298	-24.022290	-11.285590	 0.338754	 46.672290	-0.145905	 5.884797	-13.183340	-12.680940	 0.000673	 0.619277	-0.000654	 0.664984	 1.235364	-1.813675	-0.000000	 0.000000	 0.000000	 1.370424	 2.453440	-3.650352	-0.653330	 0.484747	 13.788710	-82.042390	-4.391799	 4.406764	-20.503030	 18.509880	-39.708470	 34.848350	 15.988250	-24.269120	 6.671195	-3.263248	 6.324736	 6.935321	-2.759672	 5.958040	-5.462852	 2.168400	-14.464460	 87.472950	 3.672549	-0.174438	 21.230190	 19.404170	 50.058430	-29.769590	-3.142528	 1.113826
-0.179590	 1.060050	-0.160600	-6.001206	 3.852760	 14.132210	-5.055101	-5.086218	 14.366410	 0.000581	 0.077855	-0.000123	 1.577910	-5.489260	 6.912711	 0.000105	 1.751922	-0.000130	-3.024722	-16.896480	-14.128190	 0.476377	 46.407410	-0.204421	 6.914027	-11.204950	-10.147960	 0.000735	 1.077704	 0.000629	 0.676122	 0.902648	-1.664243	-0.000000	 0.000000	 0.000000	 1.379436	 1.788311	-3.344943	-0.655476	 0.965169	 13.801810	-81.673660	-5.035529	 4.692196	-20.370510	 18.131180	-40.728200	 34.782180	 16.029780	-25.058680	 6.471398	-1.929696	 6.065484	 6.339049	-1.717767	 5.992580	-5.498362	 2.248419	-13.859560	 86.747270	 4.387620	 0.750299	 22.827890	 19.291510	 48.424390	-28.952960	-1.772256	 0.737041
-0.180010	 1.060290	-0.172940	-5.895753	 3.682451	 13.872140	-5.245863	-5.650243	 14.317920	 0.000604	 0.081963	 0.000442	 1.718363	-4.850128	 6.962637	 0.000357	 0.256229	-0.000281	-2.056434	-13.733770	-15.090860	 0.318104	 44.157240	-0.129820	 7.395764	-9.137230	-9.187394	-0.000352	 1.295295	-0.000742	 0.653446	 0.812331	-1.568313	-0.000000	 0.000000	 0.000000	 1.329340	 1.608683	-3.150703	-0.791060	 0.921948	 13.937240	-81.720490	-5.484626	 4.500253	-20.342040	 17.934160	-40.703960	 34.706850	 16.564800	-24.788840	 6.012417	-1.494266	 5.964293	 6.046427	-1.333081	 5.753192	-5.566667	 2.042693	-13.503290	 86.484320	 4.459438	 0.680693	 23.176200	 19.617760	 47.776360	-29.526930	-1.527377	 0.972405
-0.180010	 1.060290	-0.172940	-5.895753	 3.682451	 13.872140	-5.245863	-5.650243	 14.317920	 0.000604	 0.081963	 0.000442	 1.718363	-4.850128	 6.962637	 0.000357	 0.256229	-0.000281	-2.056434	-13.733770	-15.090860	 0.318104	 44.157240	-0.129820	 7.395764	-9.137230	-9.187394	-0.000352	 1.295295	-0.000742	 0.653446	 0.812331	-1.568313	-0.000000	 0.000000	 0.000000	 1.329340	 1.608683	-3.150703	-0.791060	 0.921948	 13.937240	-81.720490	-5.484626	 4.500253	-20.342040	 17.934160	-40.703960	 34.706850	 16.564800	-24.788840	 6.012417	-1.494266	 5.964293	 6.046427	-1.333081	 5.753192	-5.566667	 2.042693	-13.503290	 86.484320	 4.459438	 0.680693	 23.176200	 19.617760	 47.776360	-29.526930	-1.527377	 0.972405
-0.180740	 1.060250	-0.188400	-5.822982	 3.806881	 13.453200	-5.464677	-6.681721	 14.532510	 0.000048	 0.082962	 0.000377	 1.590548	-4.209637	 6.824288	 0.000207	 0.244164	 0.000737	-0.082810	-8.526861	-14.987620	 0.577222	 37.565690	-0.195277	 8.129235	-6.586037	-7.430958	-0.000832	-2.663701	-0.000635	 0.659509	 0.554452	-1.432740	-0.000000	 0.000000	 0.000000	 1.337471	 1.095126	-2.877144	-0.770362	 0.578501	 14.019980	-81.625600	-5.731283	 4.564493	-20.329540	 17.501530	-41.006610	 34.675570	 16.308900	-24.904340	 5.809519	-1.571624	 5.574327	 5.768650	-1.088338	 5.251010	-5.413156	 1.584697	-13.230930	 86.170200	 4.730438	 0.667483	 22.933030	 19.993430	 46.991860	-30.455350	-1.614361	 0.549150
-0.181340	 1.059850	-0.200310	-5.632008	 4.157696	 13.190530	-5.817110	-7.690584	 14.471030	 0.000651	 0.092891	-0.000083	 1.398936	-3.781507	 6.875899	 0.000205	 0.232222	 0.000044	 0.973175	-5.806346	-15.329250	 0.353951	 32.730640	-0.103640	 8.852268	-4.495610	-4.996202	 0.000411	-11.724120	 0.238792	 0.600407	 0.266051	-1.359979	-0.000000	 0.000000	 0.000000	 1.207251	 0.518251	-2.726019	-0.980008	 0.514821	 13.992510	-81.394740	-5.777198	 4.659046	-20.330350	 17.186180	-41.280800	 34.463750	 16.253520	-25.048710	 5.571445	-1.523146	 4.912663	 5.668226	-0.957811	 4.707809	-5.633982	 1.583735	-13.105170	 86.253580	 4.668674	 0.442258	 22.849450	 20.035120	 46.634460	-30.511940	-1.613887	-0.607349
-0.181820	 1.058500	-0.219060	-5.004745	 5.492929	 12.608790	-6.864257	-9.951136	 14.955920	 0.000372	 0.077967	-0.000584	 1.053070	-3.106759	 6.568357	 0.000207	 0.209157	 0.000658	 0.561019	-6.575022	-14.890380	 0.332189	 32.016470	-0.095085	 7.965841	-4.143221	-2.924589	 0.000210	-14.856840	 0.453331	 0.364685	-0.335522	-1.205511	-0.000000	 0.000000	 0.000000	 0.724128	-0.679916	-2.411291	-1.887411	-0.533700	 14.815420	-80.467090	-5.511185	 4.971506	-20.372210	 17.142450	-41.641780	 34.216550	 16.383550	-25.268160	 5.043430	-1.981084	 4.336200	 5.463373	-0.794619	 3.909647	-6.002588	 1.021456	-12.771180	 86.197530	 4.397790	 0.305179	 23.332400	 19.852030	 45.747550	-29.810890	-1.909306	-2.241806
-0.181740	 1.057030	-0.233650	-4.301630	 6.259730	 12.148810	-7.852196	-11.426260	 15.048580	 0.000744	 0.092935	 0.000180	 1.110206	-2.552015	 6.661974	 0.000540	 0.199757	 0.000197	 0.717227	-4.991459	-13.268830	 0.176529	 31.451400	-0.049072	 6.702353	-6.469810	-4.001641	-0.000083	-9.750456	 0.101062	 0.182013	-0.577242	-1.137182	-0.000000	 0.000000	 0.000000	 0.351296	-1.160047	-2.276889	-2.141790	-0.057715	 15.091730	-80.058270	-5.618853	 5.063101	-20.332550	 17.306720	-42.012970	 34.115720	 16.570270	-25.532020	 4.834466	-1.239634	 3.612401	 5.183992	-0.759369	 3.428404	-6.036666	 1.740624	-12.665480	 86.159970	 4.232466	 0.292129	 23.793020	 19.674970	 45.173330	-29.545800	-1.138306	-3.239332
-0.180650	 1.054620	-0.253380	-2.928945	 6.786059	 10.951470	-9.407547	-12.878480	 15.059480	 0.001363	 0.077654	-0.000416	 1.330872	-1.652204	 7.344980	-0.000496	 0.187218	-0.000067	 0.894344	-3.031389	-8.383558	 0.597287	 27.444910	-0.140884	 5.070421	-14.014760	-7.324492	-0.000516	 0.847778	 0.225800	-0.060934	-0.528808	-0.941177	-0.000000	 0.000000	 0.000000	-0.128814	-1.058422	-1.886185	-2.555282	 0.242928	 15.741330	-79.993680	-5.991127	 5.011156	-20.325730	 17.365580	-42.614890	 34.136250	 16.791370	-26.108570	 4.143825	-0.799214	 3.509176	 4.622361	-0.913794	 3.117616	-6.592341	 2.051036	-11.979600	 86.197180	 4.345565	 0.409400	 23.829460	 19.498410	 44.961040	-28.749020	-0.819922	-3.450056
-0.180190	 1.051660	-0.276230	-1.629237	 6.473905	 10.099300	-10.725370	-13.755630	 14.550190	 0.000131	 0.082862	-0.000429	 1.198208	-0.594453	 8.112438	-0.000181	 0.163114	 0.000233	 0.291246	-2.725024	-7.589630	 0.677388	 24.219590	-0.139871	 3.096241	-17.937310	-9.793410	-0.000567	 0.527071	 0.147167	-0.189345	-0.049112	-0.835086	-0.000000	 0.000000	 0.000000	-0.380564	-0.095277	-1.672236	-2.498690	 1.002031	 15.544440	-80.145540	-6.310056	 4.671421	-20.360490	 17.099220	-43.194860	 34.517800	 16.906340	-26.995800	 3.843899	-0.372740	 3.224097	 4.121853	-1.339409	 3.074525	-6.616462	 2.723729	-11.973770	 86.065770	 4.589558	 0.670486	 23.553460	 19.430890	 45.127010	-28.219700	-0.159020	-2.886751
-0.180720	 1.048600	-0.294330	-1.408344	 6.985168	 9.482521	-11.075160	-15.358280	 14.772010	 0.000930	 0.083461	-0.000107	 0.883657	 0.081851	 8.065814	-0.000588	 0.138533	-0.000349	 0.012459	-2.927664	-10.850640	 0.422721	 20.472170	-0.067713	 1.836096	-18.724180	-8.052248	-0.000725	 0.411628	 0.037089	-0.022968	 0.064189	-0.764571	-0.000000	 0.000000	 0.000000	-0.045047	 0.128555	-1.530241	-1.979305	 0.097956	 15.523120	-80.504880	-6.351348	 4.409651	-20.259770	 16.767800	-43.342620	 35.121840	 16.888020	-27.654290	 4.236331	-1.600702	 3.352598	 3.904392	-1.843907	 3.227385	-6.124236	 1.887113	-12.140630	 85.798030	 4.840384	 1.255256	 23.511880	 19.182330	 44.945380	-28.157560	 0.441262	-2.625378
-0.181580	 1.045700	-0.311830	-1.779348	 7.489992	 9.539131	-10.979490	-16.975780	 14.701350	 0.001752	 0.082610	-0.000345	 0.578437	 0.814732	 7.796834	 0.000533	 0.112521	 0.000297	 1.079179	-0.275924	-16.149980	 0.094463	 12.347540	-0.001348	 1.436319	-17.466180	-4.330454	-0.000128	 0.364099	 0.000835	 0.394616	 0.119590	-0.828891	-0.000000	 0.000000	 0.000000	 0.792172	 0.233861	-1.660204	-1.516745	-0.120073	 15.239160	-80.963000	-6.158566	 4.291819	-20.403350	 16.414760	-43.421830	 35.457510	 16.699170	-27.647670	 4.607841	-2.384621	 3.259531	 3.778859	-2.502536	 3.395554	-5.846306	 1.743077	-12.510170	 85.539510	 4.943498	 1.615405	 23.499450	 18.950900	 44.956120	-28.192650	 1.156533	-2.723533
